<?xml version="1.0" encoding="UTF-8" standalone="no"?>
<!-- Created with Inkscape (http://www.inkscape.org/) -->

<svg
   width="41.136333mm"
   height="8.3274336mm"
   viewBox="0 0 41.136333 8.3274336"
   version="1.1"
   id="svg5"
   xml:space="preserve"
   inkscape:version="1.2.2 (732a01da63, 2022-12-09)"
   sodipodi:docname="dareuk-recreated.svg"
   xmlns:inkscape="http://www.inkscape.org/namespaces/inkscape"
   xmlns:sodipodi="http://sodipodi.sourceforge.net/DTD/sodipodi-0.dtd"
   xmlns="http://www.w3.org/2000/svg"
   xmlns:svg="http://www.w3.org/2000/svg"><sodipodi:namedview
     id="namedview7"
     pagecolor="#ffffff"
     bordercolor="#666666"
     borderopacity="1.0"
     inkscape:showpageshadow="2"
     inkscape:pageopacity="0.0"
     inkscape:pagecheckerboard="0"
     inkscape:deskcolor="#d1d1d1"
     inkscape:document-units="mm"
     showgrid="false"
     inkscape:zoom="2.3786088"
     inkscape:cx="47.086347"
     inkscape:cy="137.0549"
     inkscape:window-width="2560"
     inkscape:window-height="1369"
     inkscape:window-x="-8"
     inkscape:window-y="-8"
     inkscape:window-maximized="1"
     inkscape:current-layer="layer1" /><defs
     id="defs2" /><g
     inkscape:label="Layer 1"
     inkscape:groupmode="layer"
     id="layer1"
     transform="translate(-32.672791,-121.78858)"><g
       id="g1425"><g
         id="g1408"><path
           d="m 33.341073,129.6627 v -7.52407 h 2.123894 q 0.981849,0 1.736323,0.43408 0.754473,0.43408 1.162716,1.23507 0.41341,0.80098 0.418578,1.83967 v 0.48059 q 0,1.06453 -0.41341,1.86551 -0.408243,0.80099 -1.173052,1.2299 -0.759641,0.42891 -1.772496,0.43925 z m 0.992184,-6.70758 v 5.89626 h 1.043861 q 1.147213,0 1.782831,-0.71313 0.640786,-0.71314 0.640786,-2.03088 v -0.43925 q 0,-1.28157 -0.604613,-1.98954 -0.599444,-0.71313 -1.705317,-0.72346 z"
           style="font-size:10.5833px;line-height:1.25;font-family:Roboto;-inkscape-font-specification:'Roboto, Normal';fill:#2e2d5f;stroke:#2e2d5f;stroke-width:0.7;stroke-dasharray:none;stroke-opacity:1"
           id="path684" /><path
           d="m 43.993744,127.699 h -3.152252 l -0.707965,1.9637 h -1.02319 l 2.8732,-7.52407 h 0.868162 l 2.878368,7.52407 h -1.018023 z m -2.85253,-0.81649 h 2.557975 l -1.281571,-3.51915 z"
           style="font-size:10.5833px;line-height:1.25;font-family:Roboto;-inkscape-font-specification:'Roboto, Normal';fill:#2e2d5f;stroke:#2e2d5f;stroke-width:0.7;stroke-dasharray:none;stroke-opacity:1"
           id="path686" /><path
           d="m 49.363391,126.61896 h -1.767328 v 3.04374 h -0.997352 v -7.52407 h 2.490796 q 1.271236,0 1.953363,0.57878 0.687294,0.57877 0.687294,1.68464 0,0.7028 -0.382404,1.22473 -0.377237,0.52193 -1.054196,0.78031 l 1.767328,3.19359 v 0.062 h -1.064531 z m -1.767328,-0.81131 h 1.52445 q 0.73897,0 1.173051,-0.38241 0.439248,-0.3824 0.439248,-1.02319 0,-0.69763 -0.418577,-1.0697 -0.413411,-0.37207 -1.19889,-0.37723 h -1.519282 z"
           style="font-size:10.5833px;line-height:1.25;font-family:Roboto;-inkscape-font-specification:'Roboto, Normal';fill:#2e2d5f;stroke:#2e2d5f;stroke-width:0.7;stroke-dasharray:none;stroke-opacity:1"
           id="path688" /><path
           d="m 57.095128,126.21269 h -3.260773 v 2.6665 h 3.787871 v 0.81132 h -4.780055 v -7.52407 h 4.728378 v 0.81649 h -3.736194 v 2.41845 h 3.260773 z"
           style="font-size:10.5833px;line-height:1.25;font-family:Roboto;-inkscape-font-specification:'Roboto, Normal';fill:#2e2d5f;stroke:#2e2d5f;stroke-width:0.7;stroke-dasharray:none;stroke-opacity:1"
           id="path690" /></g><g
         id="g1402"><g
           id="g1397"><path
             d="m 66.132887,122.13863 v 5.11595 q -0.0052,1.06453 -0.671792,1.74149 -0.661456,0.67696 -1.798334,0.75964 l -0.263549,0.0103 q -1.235063,0 -1.968866,-0.66662 -0.733803,-0.66663 -0.744138,-1.83451 v -5.12629 h 0.981849 v 5.09528 q 0,0.81649 0.449584,1.27124 0.449583,0.44958 1.281571,0.44958 0.842323,0 1.286739,-0.44958 0.449584,-0.44959 0.449584,-1.26607 v -5.10045 z"
             style="font-size:10.5833px;line-height:1.25;font-family:Roboto;-inkscape-font-specification:'Roboto, Normal';fill:#2e2d5f;stroke:#2e2d5f;stroke-width:0.7;stroke-dasharray:none;stroke-opacity:1"
             id="path692" /><path
             d="m 69.248384,126.16421 -0.919838,0.95601 v 2.54248 h -0.992184 v -7.52407 h 0.992184 v 3.72069 l 3.343455,-3.72069 h 1.198889 l -2.96105,3.32279 3.193594,4.20128 h -1.188555 z"
             style="font-size:10.5833px;line-height:1.25;font-family:Roboto;-inkscape-font-specification:'Roboto, Normal';fill:#2e2d5f;stroke:#2e2d5f;stroke-width:0.7;stroke-dasharray:none;stroke-opacity:1"
             id="path694" /></g></g><text
         xml:space="preserve"
         style="font-style:normal;font-weight:normal;font-size:10.3149px;line-height:1.25;font-family:sans-serif;opacity:0;fill:#000000;fill-opacity:1;stroke:none;stroke-width:0.257873"
         x="32.522449"
         y="126.41"
         id="text1412"
         transform="scale(0.97463819,1.0260218)"><tspan
           sodipodi:role="line"
           id="tspan1410"
           style="stroke-width:0.257873"
           x="32.522449"
           y="126.41">DARE UK</tspan></text></g></g></svg>
